# xmcd
#
# Track frame offsets:
#	150
#	10731
#	24333
#	36404
#	47858
#	61122
#	78365
#	90024
#	102955
#	116159
#	127037
#	139590
#	152965
#	167725
#	186513
#	203650
#
# Disc length: 2935 seconds
# Revision: 0
# Processed by: cddbd v1.5.2PL0 Copyright (c) Steve Scherf et al.
# Submitted via: dBpowerAMP V12.0
#
DISCID=ce0b7510
DTITLE=Sandie Dodd - Leather
DYEAR=1900
DGENRE=Country
TTITLE0=Nine to five
TTITLE1=Here you come again
TTITLE2=Jolene
TTITLE3=Why's ya come in here looking like that
TTITLE4=Rocky top
TTITLE5=The salt in my tears
TTITLE6=If I could only win your love
TTITLE7=Your cheating heart
TTITLE8=Oh boy
TTITLE9=Silver threads and golden needles
TTITLE10=If the jukebox took teardrops
TTITLE11=No more next times
TTITLE12=They're watching their love slip away
TTITLE13=Dance cowboy dance
TTITLE14=Runaway
TTITLE15=Blue skies and butterflies
EXTD=
EXTT0=
EXTT1=
EXTT2=
EXTT3=
EXTT4=
EXTT5=
EXTT6=
EXTT7=
EXTT8=
EXTT9=
EXTT10=
EXTT11=
EXTT12=
EXTT13=
EXTT14=
EXTT15=
PLAYORDER=
